PathFileType	4	(X/Y/Z)	Patient4_TMGait_0pt4_03_right_30.trc.trc
DataRate	CameraRate	NumFrames	NumMarkers	Units	OrigDataRate	OrigDataStartFrame	OrigNumFrames
76.086956521739	76.086956521739	4	33	mm	76.086956521739	18	       141
Frame#	Time	Sacral			L.Shoulder			Chest			R.Shoulder			Neck			R.ASIS			L.ASIS			R.Thigh.Superior			R.Thigh.Lateral			R.Thigh.Inferior			R.Patella			L.Thigh.Superior			L.Thigh.Lateral			L.Thigh.Inferior			L.Patella			L.Shank.Superior			L.Shank.Lateral			L.Shank.Inferior			R.Shank.Superior			R.Shank.Lateral			R.Shank.Inferior			R.Heel			R.Midfoot.Superior			R.Midfoot.Lateral			R.Toe			L.Heel			L.Midfoot.Lateral			L.Midfoot.Superior			L.Toe			L.Elbow			L.Wrist			R.Elbow			R.Wrist			
		X1	Y1	Z1	X2	Y2	Z2	X3	Y3	Z3	X4	Y4	Z4	X5	Y5	Z5	X6	Y6	Z6	X7	Y7	Z7	X8	Y8	Z8	X9	Y9	Z9	X10	Y10	Z10	X11	Y11	Z11	X12	Y12	Z12	X13	Y13	Z13	X14	Y14	Z14	X15	Y15	Z15	X16	Y16	Z16	X17	Y17	Z17	X18	Y18	Z18	X19	Y19	Z19	X20	Y20	Z20	X21	Y21	Z21	X22	Y22	Z22	X23	Y23	Z23	X24	Y24	Z24	X25	Y25	Z25	X26	Y26	Z26	X27	Y27	Z27	X28	Y28	Z28	X29	Y29	Z29	X30	Y30	Z30	X31	Y31	Z31	X32	Y32	Z32	X33	Y33	Z33	

18	39.133428571429	842.011019652035	1010.875873687161	390.277778762882	1059.948992264066	1427.077191982536	210.170407669892	1136.460368269750	1362.627928717961	386.535512093024	1032.702221881287	1444.951122159595	545.033326832536	1026.577532695612	1496.799288744978	361.015846213460	1057.664392544887	950.095823923174	535.579002530995	1071.875762784036	959.306339315620	258.551603072986	1125.084329500883	768.109241563184	518.249924346225	1070.809080764587	652.363843706753	593.384354516962	1160.456799813828	606.682776383955	518.694393475217	1189.182108643084	528.213249221286	538.291387672678	1087.056181773218	738.289662730315	294.081209775907	986.131019725421	634.596338341866	222.342666339313	1050.989013201711	547.762822631077	291.282479587429	1039.806930278286	480.978717646242	300.117459495099	1010.544798067431	411.503009413254	290.006034444783	915.254536820665	303.132659997856	236.113047524143	953.551369907511	189.000719963185	309.840344720265	1175.503859040063	443.097967496266	552.280953917542	1125.570569655487	331.504603546202	621.333721350930	1197.669605146637	244.938116205524	573.979014088078	1111.241643330881	56.118917282812	554.624007880680	1274.911960016757	130.943746654212	589.836532999422	1197.754569548656	54.880797992906	625.907115937572	1399.974628999249	95.647095891217	611.975063634853	818.596188527737	39.070854856870	353.448978548486	889.853393523160	35.140009129081	270.577961204864	974.423195099258	94.839928440993	297.183889903276	1101.952763692301	42.164815346448	263.790819418015	1071.190892193816	1082.940213038208	78.923492651901	1320.105781059633	1021.906085767939	96.956085855292	895.014872059006	1131.901160606703	666.655644065133	888.732376550987	871.888459062155	697.113883978808	
19	39.146571428571	843.042638141570	1010.191164798110	392.383648243535	1059.841564707324	1426.728274687778	212.384344857349	1136.582469283900	1362.331688293388	388.653658852235	1032.729185381866	1444.420316408847	547.214205464107	1026.407754007136	1496.254762557690	363.237297254750	1058.550335935506	949.118168622434	537.631698024021	1073.344428611958	959.206020708824	260.425494964584	1124.132637717564	765.315576681120	521.084271498342	1066.876808917181	649.467380780938	594.333048370728	1156.913509961913	603.639796975930	520.361065644343	1184.215309873686	525.637122194469	538.782952088135	1086.590338565090	737.328329052623	295.980441153837	984.895403587408	634.328090500455	223.768452674135	1049.038887141536	546.924849707886	292.530624898984	1037.459344316565	480.098407866653	301.111657698046	1007.664527224402	410.877157416993	290.839765710667	911.434177410310	303.319353175160	236.698875178098	948.969127473754	188.694957942357	310.094126882423	1170.908785070468	440.264570745898	552.194132992855	1120.632751780367	328.005292582051	619.673812861093	1193.622351115683	242.114623396975	572.423021209044	1108.061533519035	53.661113777615	550.769556107875	1271.391179178832	127.696201307994	587.781097241251	1193.708546982609	52.196186255549	622.952931215956	1396.053825934282	92.228498937860	611.174864781535	813.315134891859	39.114513397886	353.433679714478	884.559725835554	35.122599716185	270.596265914996	969.143308114300	94.788174224085	297.234954815902	1096.637974483326	42.044751683773	263.809691658100	1070.131907849813	1082.261042252409	81.917910119407	1319.450461541669	1024.023551990096	101.210309526246	894.659184388266	1131.596600197772	668.358926625077	889.238349025152	871.421450561365	698.220753689511	
20	39.159714285714	844.253741165814	1009.308258840424	394.882654992608	1059.429235329261	1426.306237009995	214.773292315159	1136.639162569002	1362.042178783319	390.870662360906	1032.785370876846	1443.794175906058	549.624508310413	1026.052234768845	1495.613543645020	365.667149880938	1059.815467092516	948.036599109161	539.775659598613	1074.888708180221	959.043384873700	262.408526562601	1123.833719927922	762.577999254712	523.802216285144	1063.642791165414	646.555209914247	594.951855838014	1154.052613368119	600.734743702985	521.671078821832	1179.780840802462	522.795298890936	538.807233743373	1086.390640151284	736.300570206601	297.821182951763	983.819433535736	633.978143232317	225.323000183087	1047.389242047439	545.994593711088	293.772395974885	1035.470861063339	479.065170613686	302.114122736503	1005.027290230547	410.131070578561	291.729289076086	907.722544756911	303.489145564907	237.376787009322	944.449548702134	188.323126394087	310.382449212168	1166.269443125952	436.948439884031	551.663366086546	1114.831175173202	324.474379978004	617.644423710190	1187.858205301305	238.705789218125	570.413767366436	1101.593227451727	51.476056347530	546.757503901822	1265.051833214979	123.608627691755	585.225704667104	1186.406322565463	49.390887399946	619.790595471109	1389.121131390278	87.151476266088	609.869263135043	808.028157780513	39.106707346058	353.430569355324	879.262951327090	35.084253931976	270.626199697700	963.852712104132	94.727551816690	297.300696944200	1091.323901008419	41.920516150888	263.814488231092	1068.967851517994	1081.516913415968	85.047683566370	1318.523640695546	1025.136857846505	105.505530143397	894.890612355915	1130.908807706254	670.352242218889	891.099159505038	870.547975608808	699.548751595275	
21	39.172857142857	845.610115992170	1008.241333014454	397.732816268432	1058.747388452253	1425.799400709780	217.343700945597	1136.647276231568	1361.745754339029	393.199844599785	1032.883756801902	1443.071808700974	552.268130528151	1025.545595686438	1494.879256942986	368.312220709191	1061.423499498759	946.862478945022	542.002798062531	1076.434713227681	958.773483610013	264.516232015332	1124.137435280125	759.883256773654	526.348097408544	1061.115014122441	643.693229649706	595.290447216796	1151.821420840699	597.978004155784	522.607414611834	1175.847032211246	519.746799910091	538.366410875870	1086.478363456655	735.209898235079	299.565894158881	982.926923965467	633.532060986982	227.006070719721	1046.077964505902	544.966045860704	295.010656084309	1033.893134741001	477.860426597750	303.128179336229	1002.662034436564	409.249513335976	292.689935635649	904.148649481115	303.640190810475	238.165038176430	940.002360468306	187.881210906317	310.720673729272	1161.704534309767	433.272508815554	550.760280261255	1108.516825525484	320.965947311390	615.429223874108	1180.835567933236	234.843072040028	568.079280098560	1092.573054185752	49.478669168005	542.869641331978	1256.537828759566	118.962032340266	582.289824277160	1176.664140643693	46.573767975631	616.631171086406	1379.944277949224	80.929795434601	608.076166917838	802.732477772417	39.049588508108	353.442233386122	873.964294217861	35.026558217116	270.672886641600	958.556781184575	94.659785401958	297.386288607626	1086.014874236390	41.788880887200	263.803575424814	1067.666074637392	1080.697341736648	88.293812085542	1317.323880429590	1025.265681286091	109.811952681160	895.712411823403	1129.840323369322	672.652995466471	894.285511043955	869.290593963804	701.140083047128	
